<?xml version="1.0" encoding="iso-8859-1"?>
<!-- Generator: Adobe Illustrator 19.0.0, SVG Export Plug-In . SVG Version: 6.00 Build 0)  -->
<svg version="1.1" id="Capa_1" xmlns="http://www.w3.org/2000/svg" xmlns:xlink="http://www.w3.org/1999/xlink" x="0px" y="0px"
	 viewBox="0 0 512.072 512.072" style="enable-background:new 0 0 512.072 512.072;" xml:space="preserve">
<path style="fill:#4B9FD8;" d="M504.781,276.772l-21.216,26.432c-5.808,7.248-8.32,16.592-6.896,25.776l5.152,33.456
	c2.368,15.376-6.272,30.32-20.768,35.936l-31.536,12.224c-8.688,3.36-15.552,10.24-18.928,18.928l-12.224,31.536
	c-5.616,14.496-20.576,23.136-35.936,20.768l-33.44-5.152c-9.184-1.408-18.528,1.088-25.776,6.896l-26.432,21.216
	c-12.112,9.712-29.344,9.712-41.456,0l-26.432-21.216c-7.248-5.808-16.592-8.32-25.776-6.896l-33.472,5.136
	c-15.376,2.368-30.32-6.272-35.936-20.768l-12.224-31.536c-3.36-8.688-10.24-15.552-18.928-18.928l-31.536-12.224
	c-14.496-5.6-23.136-20.56-20.768-35.92l5.152-33.44c1.408-9.184-1.088-18.528-6.896-25.776L7.293,276.788
	c-9.712-12.112-9.712-29.344,0-41.456L28.509,208.9c5.808-7.248,8.32-16.592,6.896-25.776l-5.152-33.488
	c-2.368-15.376,6.272-30.32,20.784-35.952l31.536-12.208c8.688-3.376,15.552-10.24,18.912-18.928l12.224-31.536
	c5.616-14.496,20.56-23.136,35.936-20.768l33.44,5.152c9.184,1.408,18.528-1.088,25.776-6.896l26.432-21.216
	c12.112-9.712,29.344-9.712,41.456,0L303.181,28.5c7.248,5.808,16.592,8.32,25.776,6.896l33.456-5.152
	c15.376-2.368,30.32,6.272,35.936,20.768l12.224,31.536c3.36,8.688,10.24,15.552,18.928,18.928l31.536,12.224
	c14.496,5.616,23.136,20.576,20.768,35.936l-5.152,33.44c-1.408,9.184,1.088,18.528,6.896,25.776l21.216,26.432
	C514.493,247.412,514.493,264.66,504.781,276.772z"/>
<path style="fill:#2996CE;" d="M321.805,226.02h-181.36c-12.832,0-23.488-10.656-23.488-23.504l0.272-1.648v-0.272
	c-0.272-13.664,10.928-24.864,24.592-24.864h130.288c15.296,0,28.688-11.2,29.776-26.496c0.544-16.112-12.016-29.504-28.144-29.504
	h-137.12c-13.664,0-23.504-11.2-23.504-24.864c0,0,0,0,0-0.272s0-0.272,0-0.272c0-13.392,9.84-24.848,23.504-24.848h113.344
	c15.024,0,28.416-11.2,29.232-26.224c0.816-16.384-12.016-29.504-27.872-29.504h-24.064l-18.4,14.752
	c-7.248,5.808-16.592,8.32-25.776,6.896l-33.44-5.152c-15.376-2.368-30.32,6.272-35.936,20.784l-12.224,31.52
	c-3.36,8.688-10.224,15.552-18.912,18.928l-31.536,12.208c-14.512,5.632-23.152,20.576-20.768,35.952l5.152,33.456
	c1.424,9.184-1.088,18.528-6.896,25.776L7.309,235.3c-9.712,12.112-9.712,29.344,0,41.456l21.216,26.432
	c5.808,7.248,8.32,16.592,6.896,25.776l-5.152,33.44c-2.384,15.392,6.256,30.352,20.768,35.968l31.536,12.224
	c8.688,3.36,15.552,10.24,18.928,18.912l12.224,31.536c5.616,14.496,20.576,23.136,35.936,20.768l33.456-5.152
	c9.184-1.424,18.528,1.088,25.776,6.896l17.728,14.224c28.352-0.08,46.72-0.16,47.904-0.256
	c13.232-2.032,24.176-11.952,24.912-25.392c0.816-16.128-12.016-29.504-27.872-29.504H157.373c-16.112,0-28.96-13.392-28.144-29.504
	c0.816-15.024,14.48-26.496,29.504-26.496h108.704c15.024-0.272,27.04-12.576,27.04-27.872c0-15.296-12.56-27.872-27.856-27.872
	H131.149c-13.12,0-23.76-10.656-23.488-23.488v-2.192c-0.816-12.576,9.28-23.488,22.128-23.488h190.384
	c15.296,0,28.688-11.2,29.776-26.224C350.493,239.396,337.933,226.02,321.805,226.02z"/>
<path style="fill:#F3F3F3;" d="M256.045,424.068c-92.656,0-168.032-75.392-168.032-168.032S163.389,88.004,256.045,88.004
	s168.032,75.392,168.032,168.032S348.701,424.068,256.045,424.068z"/>
<path style="fill:#E5E5E5;" d="M227.389,106.66c-0.56,11.168,8.32,20.432,19.296,20.432h84.32c11.168,0,20.064,9.28,19.488,20.432
	c-0.576,10.416-10.032,18.352-20.432,18.352h-80.528c-10.4,0.192-18.736,8.704-18.736,19.312s8.704,19.296,19.296,19.296h99.088
	c9.088,0,16.464,7.376,16.272,16.272v1.52c0.576,8.704-6.432,16.272-15.328,16.272h-137.12c-10.592,0-19.872,7.76-20.624,18.16
	c-0.384,11.168,8.32,20.432,19.488,20.432h130.88c8.896,0,16.272,7.376,16.272,16.272l-0.192,1.136v0.192
	c0.192,9.472-7.568,17.232-17.024,17.232h-95.488c-10.592,0-19.872,7.76-20.624,18.352c-0.384,11.168,8.32,20.432,19.488,20.432
	h100.208c9.456,0,16.272,7.76,16.272,17.216c0,0,0,0,0,0.192s0,0.192,0,0.192c0,9.28-6.816,17.216-16.272,17.216h-83.744
	c-10.416,0-19.68,7.76-20.24,18.16c-0.576,11.36,8.32,20.432,19.296,20.432h2.144c89.488-3.616,161.216-77.328,161.216-167.68
	c0-92.64-75.376-168.032-168.032-168.032c-3.856,0-7.616,0.32-11.408,0.576C235.485,90.484,227.901,97.348,227.389,106.66z"/>
<path style="fill:#FFCC5B;" d="M383.853,261.204c-0.864,8.8-9.76,15.872-18.592,15.872h-9.616c4.896,0,9.312,1.984,12.512,5.2
	c3.504,3.504,5.552,8.448,5.136,13.872c-0.704,9.408-9.264,16.336-18.704,16.336h-8.224c10.384,0,18.672,8.928,17.616,19.52
	c-0.864,8.8-9.76,15.872-18.592,15.872h-63.712c0,0-13.216-0.656-24.128-5.616c-5.888-2.656-15.232-5.136-22.592-6.864
	c-6.832-1.6-13.824-2.352-20.832-2.24l-6.24,0.096v-99.824l0,0c13.552,0,26.688-5.008,36.448-14.4
	c13.968-13.44,25.024-37.52,22.976-77.168c-0.704-13.104,13.648-21.92,24.944-15.2c0.176,0.096,0.384,0.224,0.576,0.352
	c3.184,1.984,5.52,5.072,6.752,8.608c3.664,10.736,7.376,37.44,6.416,70.672h64.208c8.864,0,17.76,7.088,18.624,15.904
	c1.04,10.592-7.248,19.488-17.616,19.488h-4.96C376.605,241.668,384.909,250.596,383.853,261.204z"/>
<rect x="184.109" y="228.068" style="fill:#E5E5E5;" width="23.792" height="110.768"/>
<rect x="134.797" y="222.452" style="fill:#464646;" width="49.312" height="122.016"/>
<path style="fill:#4D4D4D;" d="M160.989,344.468c5.04,0,9.136-4.096,9.136-9.136c0-5.04-4.096-9.136-9.136-9.136h-12.208
	c-4.224,0-7.664-3.456-7.632-7.68v-0.096c0-0.192,0-0.368-0.016-0.56c-0.256-4.16,3.056-7.68,7.216-7.68h12.944
	c4.944,0,9.376-3.696,9.632-8.64c0.272-5.264-3.92-9.632-9.12-9.632h-1.76c-4.24,0-7.68-3.456-7.664-7.696v-0.528v-0.112
	c-0.032-4.464,3.6-8.128,8.08-8.128h1.856c4.944,0,9.376-3.696,9.632-8.64c0.272-5.264-3.92-9.632-9.12-9.632h-12.224
	c-4.416,0-7.712-3.712-7.648-8.128c0-0.032,0-0.08,0-0.112s0-0.08,0-0.112c-0.048-4.416,3.232-8.128,7.648-8.128h1.056
	c4.944,0,9.376-3.696,9.632-8.64c0.272-5.264-3.92-9.632-9.12-9.632h-17.376v122.016h26.192V344.468z"/>
<path style="fill:#FDBC4B;" d="M300.749,291.78h-7.104c-5.008,0-9.072-4.08-9.04-9.088v-0.624v-0.128
	c-0.032-5.28,4.256-9.584,9.536-9.584h16.272c5.84,0,11.072-4.368,11.376-10.208c0.32-6.224-4.624-11.36-10.768-11.36h-28.528
	c-5.216,0-9.104-4.384-9.04-9.584c0-0.048,0-0.08,0-0.128s0-0.08,0-0.128c-0.064-5.216,3.824-9.584,9.04-9.584h6.992
	c5.84,0,11.072-4.368,11.376-10.208c0.32-6.224-4.624-11.36-10.768-11.36h-38.032c-2.432,3.472-4.992,6.64-7.712,9.264
	c-9.76,9.392-22.896,14.4-36.448,14.4v99.824l6.24-0.096c7.024-0.112,14,0.64,20.832,2.24c7.36,1.728,16.704,4.208,22.592,6.864
	c10.912,4.976,24.128,5.616,24.128,5.616h19.024c0.736-1.456,1.184-3.072,1.184-4.816c0-5.952-4.832-10.784-10.784-10.784h-10.8
	c-4.992,0-9.056-4.08-9.024-9.072v-0.112c0-0.224,0-0.448-0.016-0.656c-0.304-4.912,3.6-9.056,8.528-9.056h20.304
	c5.84,0,11.072-4.368,11.376-10.208C311.837,296.932,306.893,291.78,300.749,291.78z"/>
<g>
</g>
<g>
</g>
<g>
</g>
<g>
</g>
<g>
</g>
<g>
</g>
<g>
</g>
<g>
</g>
<g>
</g>
<g>
</g>
<g>
</g>
<g>
</g>
<g>
</g>
<g>
</g>
<g>
</g>
</svg>
